<svg id="Layer_1" enable-background="new 0 0 512 512" height="512" viewBox="0 0 512 512" width="512" xmlns="http://www.w3.org/2000/svg"><g><path d="m154 90h-88c-8.284 0-15-6.716-15-15 0-8.284 6.716-15 15-15h88c8.284 0 15 6.716 15 15 0 8.284-6.716 15-15 15z" fill="#8bf0ff"/><path d="m154 60h-30c8.284 0 15 6.716 15 15s-6.716 15-15 15h30c8.284 0 15-6.716 15-15s-6.716-15-15-15z" fill="#63e7ff"/><path d="m110 362c-22.644 0-41-18.356-41-41v-231h82v231c0 22.644-18.356 41-41 41z" fill="#bbf7ff"/><path d="m300 90h-88c-8.284 0-15-6.716-15-15 0-8.284 6.716-15 15-15h88c8.284 0 15 6.716 15 15 0 8.284-6.716 15-15 15z" fill="#8bf0ff"/><path d="m300 60h-30c8.284 0 15 6.716 15 15s-6.716 15-15 15h30c8.284 0 15-6.716 15-15s-6.716-15-15-15z" fill="#63e7ff"/><path d="m256 362c-22.644 0-41-18.356-41-41v-231h82v231c0 22.644-18.356 41-41 41z" fill="#bbf7ff"/><path d="m445 90h-88c-8.284 0-15-6.716-15-15 0-8.284 6.716-15 15-15h88c8.284 0 15 6.716 15 15 0 8.284-6.716 15-15 15z" fill="#8bf0ff"/><path d="m445 60h-30c8.284 0 15 6.716 15 15s-6.716 15-15 15h30c8.284 0 15-6.716 15-15s-6.716-15-15-15z" fill="#63e7ff"/><path d="m401 362c-22.644 0-41-18.356-41-41v-231h82v231c0 22.644-18.356 41-41 41z" fill="#bbf7ff"/><path d="m151 90v231c0 22.64-18.36 41-41 41s-41-18.36-41-41v-231z" fill="#bbf7ff"/><path d="m121 90v231c0 17.344-10.78 32.165-26 38.155 4.647 1.829 9.704 2.845 15 2.845 22.64 0 41-18.36 41-41v-231z" fill="#8bf0ff"/><path d="m69.12 229.735h82v91c0 22.64-18.36 41-41 41s-41-18.36-41-41z" fill="#f75632"/><path d="m121.12 229.735v91c0 17.344-10.78 32.165-26 38.155 4.647 1.829 9.704 2.845 15 2.845 22.64 0 41-18.36 41-41v-91z" fill="#e33629"/><path d="m297 90v231c0 22.64-18.36 41-41 41s-41-18.36-41-41v-231z" fill="#bbf7ff"/><path d="m267 90v231c0 17.344-10.78 32.165-26 38.155 4.647 1.829 9.704 2.845 15 2.845 22.64 0 41-18.36 41-41v-231z" fill="#8bf0ff"/><path d="m215 230h82v91c0 22.64-18.36 41-41 41s-41-18.36-41-41z" fill="#f75632"/><path d="m267 230v91c0 17.344-10.78 32.165-26 38.155 4.647 1.829 9.704 2.845 15 2.845 22.64 0 41-18.36 41-41v-91z" fill="#e33629"/><path d="m442 90v231c0 22.64-18.36 41-41 41s-41-18.36-41-41v-231z" fill="#bbf7ff"/><path d="m412 90v231c0 17.344-10.78 32.165-26 38.155 4.647 1.829 9.704 2.845 15 2.845 22.64 0 41-18.36 41-41v-231z" fill="#8bf0ff"/><path d="m442 230v91c0 22.64-18.36 41-41 41s-41-18.36-41-41v-91z" fill="#f75632"/><path d="m412 230v91c0 17.344-10.78 32.165-26 38.155 4.647 1.829 9.704 2.845 15 2.845 22.64 0 41-18.36 41-41v-91z" fill="#e33629"/><path d="m7.5 129.5v310.5c0 6.627 5.373 12 12 12h473c6.627 0 12-5.373 12-12v-310.5c0-6.627-5.373-12-12-12h-473c-6.627 0-12 5.373-12 12zm463 292.5h-429c-2.209 0-4-1.791-4-4v-266.5c0-2.209 1.791-4 4-4h429c2.209 0 4 1.791 4 4v266.5c0 2.209-1.791 4-4 4z" fill="#d67b42"/><g><path d="m492.5 117.5h-30c6.627 0 12 5.373 12 12v310.5c0 6.627-5.373 12-12 12h30c6.627 0 12-5.373 12-12v-310.5c0-6.627-5.373-12-12-12z" fill="#be652b"/></g><g><path d="m492.5 110h-43v-12.953c10.258-2.09 18-11.181 18-22.047 0-12.407-10.093-22.5-22.5-22.5h-8.41c-4.142 0-7.5 3.358-7.5 7.5s3.358 7.5 7.5 7.5h8.41c4.136 0 7.5 3.364 7.5 7.5s-3.364 7.5-7.5 7.5h-88c-4.136 0-7.5-3.364-7.5-7.5s3.364-7.5 7.5-7.5h47.077c4.142 0 7.5-3.358 7.5-7.5s-3.358-7.5-7.5-7.5h-47.077c-12.407 0-22.5 10.093-22.5 22.5 0 10.866 7.742 19.957 18 22.047v12.953h-48v-12.953c10.258-2.09 18-11.181 18-22.047 0-12.407-10.093-22.5-22.5-22.5h-88c-12.407 0-22.5 10.093-22.5 22.5 0 10.866 7.742 19.957 18 22.047v12.953h-49v-12.953c10.258-2.09 18-11.181 18-22.047 0-12.407-10.093-22.5-22.5-22.5h-88c-12.407 0-22.5 10.093-22.5 22.5 0 10.866 7.742 19.957 18 22.047v12.953h-42c-10.752 0-19.5 8.748-19.5 19.5v62.474c0 4.142 3.358 7.5 7.5 7.5s7.5-3.358 7.5-7.5v-62.474c0-2.481 2.019-4.5 4.5-4.5h473c2.481 0 4.5 2.019 4.5 4.5v254.782c0 4.142 3.358 7.5 7.5 7.5s7.5-3.358 7.5-7.5v-254.782c0-10.752-8.748-19.5-19.5-19.5zm-125-12.5h67v12.5h-67zm-163-22.5c0-4.136 3.364-7.5 7.5-7.5h88c4.136 0 7.5 3.364 7.5 7.5s-3.364 7.5-7.5 7.5h-88c-4.136 0-7.5-3.364-7.5-7.5zm18 22.5h67v12.5h-67zm-164-22.5c0-4.136 3.364-7.5 7.5-7.5h88c4.136 0 7.5 3.364 7.5 7.5s-3.364 7.5-7.5 7.5h-88c-4.136 0-7.5-3.364-7.5-7.5zm18 22.5h67v12.5h-67z"/><path d="m504.5 408.885c-4.142 0-7.5 3.358-7.5 7.5v23.615c0 2.481-2.019 4.5-4.5 4.5h-473c-2.481 0-4.5-2.019-4.5-4.5v-215.205c0-4.142-3.358-7.5-7.5-7.5s-7.5 3.358-7.5 7.5v215.205c0 10.752 8.748 19.5 19.5 19.5h473c10.752 0 19.5-8.748 19.5-19.5v-23.615c0-4.142-3.358-7.5-7.5-7.5z"/><path d="m470.5 429.5c6.341 0 11.5-5.159 11.5-11.5v-266.5c0-6.341-5.159-11.5-11.5-11.5h-429c-6.341 0-11.5 5.159-11.5 11.5v266.5c0 6.341 5.159 11.5 11.5 11.5zm-103-192.266h67v83.766c0 18.472-15.028 33.5-33.5 33.5s-33.5-15.028-33.5-33.5zm67-15h-67v-67.234h67zm-212 15h67v83.766c0 18.472-15.028 33.5-33.5 33.5s-33.5-15.028-33.5-33.5zm67-15h-67v-67.234h67zm-213 15h67v83.766c0 18.472-15.028 33.5-33.5 33.5s-33.5-15.028-33.5-33.5zm67-15h-67v-67.234h67zm-98.5-67.234h16.5v166c0 26.743 21.757 48.5 48.5 48.5s48.5-21.757 48.5-48.5v-166h49v166c0 26.743 21.757 48.5 48.5 48.5s48.5-21.757 48.5-48.5v-166h48v166c0 26.743 21.757 48.5 48.5 48.5s48.5-21.757 48.5-48.5v-166h17.5v259.5h-422z"/></g></g></svg>